<?xml version="1.0" standalone="no"?><!DOCTYPE svg PUBLIC "-//W3C//DTD SVG 1.1//EN" "http://www.w3.org/Graphics/SVG/1.1/DTD/svg11.dtd"><svg t="1723110104254" class="icon" viewBox="0 0 1024 1024" version="1.1" xmlns="http://www.w3.org/2000/svg" p-id="4757" xmlns:xlink="http://www.w3.org/1999/xlink" width="256" height="256"><path d="M426.667 681.387l17.493 104.106c-11.093 5.974-29.013 11.52-52.907 16.64-24.32 5.547-52.906 8.534-85.76 8.534-94.293-1.707-165.12-29.867-212.48-83.627-47.786-54.187-71.68-122.88-71.68-206.08 2.134-98.56 30.72-174.08 85.334-226.987 56.32-53.333 126.293-80.64 210.773-80.64 32 0 59.733 2.987 82.773 8.107s40.107 10.667 51.2 17.067l-24.746 106.24-45.227-14.507c-17.067-4.267-36.693-6.4-59.307-6.4-49.493-0.427-90.453 15.36-122.453 46.933-32.427 31.147-49.067 78.934-50.347 142.507 0 58.027 15.787 103.253 46.08 136.533 30.294 32.854 72.96 49.92 127.574 50.347l56.746-5.12c18.347-3.413 33.707-8.107 46.934-13.653M448 469.333h85.333V384h85.334v85.333H704v85.334h-85.333V640h-85.334v-85.333H448v-85.334m298.667 0H832V384h85.333v85.333h85.334v85.334h-85.334V640H832v-85.333h-85.333z" fill="#154097" p-id="4758"></path></svg>