<?xml version="1.0" standalone="no"?><!DOCTYPE svg PUBLIC "-//W3C//DTD SVG 1.1//EN" "http://www.w3.org/Graphics/SVG/1.1/DTD/svg11.dtd"><svg t="1723110359592" class="icon" viewBox="0 0 1024 1024" version="1.1" xmlns="http://www.w3.org/2000/svg" p-id="16041" xmlns:xlink="http://www.w3.org/1999/xlink" width="256" height="256"><path d="M448.2 637.726l-8.08-38.104 352.146-242.936 34.63 205.298-378.696 75.74z m302.386 296.52c-5.442 54.4-100.63 89.754-100.63 89.754l-168.63-366.86 51.678-8.16c81.662 99.686 170.33 101.02 217.58 285.268z m-209.608 3.036c-71.668-14.526-126.216-19.46-167.3-19.46-46.108 0-75.24 6.226-92.464 12.11l51.206-117.538 0.186-0.47c0.194-0.474 20.966-45.486 193.1-19.16l43.074 93.708-27.802 50.81zM233.298 447.716L134.552 252.94l106.072-106.072 48.956 216.224c-21.11 22.488-39.774 50.936-56.286 84.624z m450.654-153.98L950.49 70.716 750.586 0l-189.54 258.946c40.548 4.3 86.192 20.536 122.906 34.792z m-140.028-36.08L692.112 0h-193.104l-78.876 276.056c38.772-13.594 80.092-19.564 123.792-18.4z m-137.39 22.48l28.558-237.98-153.67 63.916 21.68 243.86c26.802-25.346 59.77-49.02 103.432-69.796z m-195.38 380.8L80.16 620.11l29.916 89.752h116.592a329.69 329.69 0 0 1-15.512-48.93z m22.224 64.35l-98.824 14.494 46.916 69.356 79.2-36.058a329.966 329.966 0 0 1-27.292-47.792zM202.55 554.68L80.16 475.96 72 587.472l133.97 45.968c-3.322-25.332-4.38-51.62-3.42-78.76z m17.676-86.88L123.68 331.296l-43.52 106.586 122.392 104.56 17.676-74.644z m94.678 343.942c16.072-51.38 123.554-47.664 202.656-36.704l-56.64-123.22-25.336 5.068-13.68-64.526 327.668-226.046C540.666 186 364.496 308.836 302 375.334c-83.334 88.666-145.334 276 12.904 436.41z" fill="#EB2734" p-id="16042"></path></svg>