<?xml version="1.0" standalone="no"?><!DOCTYPE svg PUBLIC "-//W3C//DTD SVG 1.1//EN" "http://www.w3.org/Graphics/SVG/1.1/DTD/svg11.dtd"><svg t="1723110239029" class="icon" viewBox="0 0 1024 1024" version="1.1" xmlns="http://www.w3.org/2000/svg" p-id="10022" xmlns:xlink="http://www.w3.org/1999/xlink" width="256" height="256"><path d="M245.333333 128C180.906667 128 128 180.906667 128 245.333333v533.333334c0 64.426667 52.906667 117.333333 117.333333 117.333333h533.333334c64.426667 0 117.333333-52.906667 117.333333-117.333333v-533.333334C896 180.906667 843.093333 128 778.666667 128h-533.333334z m0 64h533.333334c29.824 0 53.333333 23.509333 53.333333 53.333333v533.333334c0 29.824-23.509333 53.333333-53.333333 53.333333h-533.333334A52.864 52.864 0 0 1 192 778.666667v-533.333334C192 215.509333 215.509333 192 245.333333 192z m58.709334 192a26.666667 26.666667 0 0 0-24.618667 37.034667l85.333333 202.666666a26.666667 26.666667 0 0 0 49.194667 0l85.333333-202.666666a26.666667 26.666667 0 0 0-49.152-20.693334l-60.757333 144.277334-60.8-144.277334a26.709333 26.709333 0 0 0-24.533333-16.341333z m277.290666 0c-14.72 0-26.666667 11.946667-26.666666 26.666667v202.666666c0 14.72 11.946667 26.666667 26.666666 26.666667h88A77.418667 77.418667 0 0 0 746.666667 562.666667c0-22.4-9.557333-42.602667-24.832-56.746667a76.8 76.8 0 0 0 14.165333-44.586667A77.418667 77.418667 0 0 0 658.666667 384H581.333333z m26.666667 53.333333h50.666667c13.226667 0 24 10.773333 24 24s-10.773333 24-24 24H608V437.333333z m0 101.333334h61.333333c13.226667 0 24 10.773333 24 24s-10.773333 24-24 24H608v-48z" p-id="10023"></path></svg>